<?xml version="1.0" encoding="UTF-8"?>
<svg id="Livello_2" data-name="Livello 2" xmlns="http://www.w3.org/2000/svg" viewBox="0 0 800 800">
  <defs>
    <style>
      .cls-1 {
        stroke-width: 18.75px;
      }

      .cls-1, .cls-2 {
        fill: #fff;
      }

      .cls-1, .cls-3 {
        stroke: #fff;
      }

      .cls-1, .cls-3, .cls-4 {
        stroke-miterlimit: 10;
      }

      .cls-3 {
        fill: #bbe1f2;
        stroke-width: 36px;
      }

      .cls-4 {
        fill: #f9dd64;
        stroke: #000;
        stroke-width: 19.65px;
      }
    </style>
  </defs>
  <circle class="cls-3" cx="383.08" cy="331.44" r="268.23"/>
  <path class="cls-2" d="M459.87,345c1.02,9.21,2.05,18.43,3.07,27.64s2.63,18,2.64,26.97c.01,6.62-2.73,9.15-8.19,12.5-6.96,4.27-13.18,9.11-19.36,14.44-4.79,4.12-9.76,7.63-14.71,7.89-1.44,.08-1.03,.25-2.79-.31-.21-.07-1.21-.68-.98-.37-1.64-2.26-1.92-5.61-1.51-8.57,1.71-12.42,20.06-14.88,30-18.21,16.19-5.42,31.53-16.19,32.98-34.66,.75-9.49-4.34-21.91-15.45-21.91-9.37,0-17.76,11.41-20.48,19.42-2.88,8.46,.32,16.33,4.26,23.76,.46,.87,1.58,3.1,1.73,3.4,.74,1.52-.34,.74,.3-.32,.08-.14,.46-.73,.51-.91,.23-.97,.84,.52-.09-.05-.2-.12-.31,.2-.71,.37-1,.42-2.09,.7-3.12,1.02-7.49,2.35-13.64,5.53-19.43,10.9-4.57,4.23-8.02,8.97-13.13,10.01-4.79,.97-9.28,1.06-13.75,3.32s-8.76,6.53-10.15,11.63c-3.09,11.33,4.96,22.23,16.1,24.58,9.31,1.96,19.96-.66,28.83-3.59,9.45-3.12,18.41-7.58,26.48-13.4,4.16-3,6.67-7.67,5.24-12.88-1.33-4.84-5.99-8.35-11-8.37-8.5-.04-16.98-.44-25.43-1.3-2.69-.27-5.22-.6-7.84-1.26-2.87-.72-.53-.52-.31,.02-.22-.54,2.17,5.52,.97,4.69-.29-.2,5.13-4.3,5.65-4.68,2.93-2.18,5.8-4.45,8.42-6.99,5.3-5.13,9.84-11.15,13.49-17.55,7.28-12.77-12.41-24.27-19.69-11.51-3.97,6.96-9.11,12.98-15.6,17.71-8.31,6.06-17.15,14.29-14.21,25.75,2.43,9.5,11.15,14.21,20.25,15.55,11.34,1.67,22.85,2.3,34.31,2.36-1.92-7.08-3.84-14.17-5.75-21.25-6,4.32-12.45,8.09-19.45,10.56-3.69,1.3-7.47,2.34-11.31,3.12-.9,.18-8.56,.66-8.55,.65,1.67-2.24,1.18,9.15,.13,6.22,.13,.36-.96,.07,.69-.09,3.8-.38,7.86-.92,11.48-2.15,7.35-2.51,12.84-7.83,18.27-13.13,4.85-4.74,6.88-5.36,13.24-7.54,7.75-2.65,14.73-6.85,17.25-15.17,2.39-7.87-.82-15.01-4.45-21.85-.33-.62-1.57-3.08-1.45-2.77-.3-.82-.54-1.65-.71-2.51-.03,.41,.05,.56,.22,.45,.85-2.43,3.71-4.68,5.57-6.3l-5.03,2.93,1.3-.47h-6.06l1.2,.35-5.03-2.93c-1.87-1.82-.54-1.95-.41-.29-.09-1.15,.01,1.05,.01,1.02,0-.12-.47,2.23-.78,2.91-1.34,2.99-3.68,5.32-6.28,6.96-7.51,4.73-16.63,6.05-24.86,9.07s-16.9,7.34-22.77,14.33c-7.37,8.77-9.65,19.8-7.67,30.98,3.92,22.19,28.99,26.74,46.19,16.6,8.18-4.82,14.37-12.26,22.35-17.31s16.23-9.56,20.44-18.34c5.19-10.81,3.16-22.55,1.89-33.98-1.38-12.39-2.75-24.78-4.13-37.17-.68-6.12-4.75-11.4-11.4-11.4-5.64,0-12.09,5.24-11.4,11.4h0Z"/>
  <path class="cls-4" d="M339.65,139.12c14.5-9.72,69.99,49.22,102,84.03,39.49,42.95,53.81,65.73,63.34,82.93,11.99,21.65,21.35,44.25,23.8,69.2,2.28,23.25-1.47,45.38-14.3,65.11-19.42,29.86-47.12,48.97-80.98,59.16-20.75,6.24-41.9,7.01-63.24,2.9-46.02-8.86-80.97-43.32-92.22-86.88-4.29-16.61-4.09-33.58-1.72-50.51,3.5-24.97,12.1-48.3,22.72-71.02,11.54-24.7,17.02-33.54,26.98-61.56,4.56-12.84,6.85-19.26,8.87-28.45,8.85-40.1-2.99-59.7,4.76-64.9Zm97.61,239.04c-20.34,20.89-42.64,20.85-49.4,41.51-4.18,12.78-1.06,29.36,9.06,37.82,15.72,13.13,41.95,1.09,47.01-1.23,2.2-1.01,11.56-5.46,20.56-15.14,10.9-11.72,14.74-24.09,16.79-30.94,8.53-28.57-.23-53.58-3.85-63.59-4.48-12.4-10.24-21.7-14.34-27.53-4.1,31.01-15.65,48.62-25.83,59.09Z"/>
  <path class="cls-1" d="M750.58,684.4c.45,1.25,9.7,28.3-6.66,44.59-11.03,10.99-29.3,12.69-47.09,4.4-42.41-46.54-84.83-93.07-127.24-139.61,8.63-5.1,18.97-12.19,29.59-21.9,10.45-9.56,18.35-19.06,24.16-27.09,42.41,46.54,84.83,93.07,127.24,139.61Z"/>
</svg>