<?xml version="1.0" encoding="UTF-8"?>
<svg xmlns="http://www.w3.org/2000/svg" viewBox="0 0 800 800">
  <defs>
    <style>
      .cls-1, .cls-2 {
        fill: #fff;
      }

      .cls-2 {
        stroke-width: 21.46px;
      }

      .cls-2, .cls-3, .cls-4 {
        stroke-miterlimit: 10;
      }

      .cls-2, .cls-4 {
        stroke: #fff;
      }

      .cls-3 {
        fill: #f80;
        stroke: #000;
        stroke-width: 15.74px;
      }

      .cls-4 {
        fill: #acd3ef;
        stroke-width: 47.78px;
      }
    </style>
  </defs>
  <g id="Livello_2" data-name="Livello 2">
    <g>
      <circle class="cls-4" cx="383.08" cy="331.44" r="268.23"/>
      <path class="cls-1" d="M445.92,346.85c.79,7.04,1.57,14.09,2.36,21.13s2.39,14.24,1.97,21.2c-.32,5.43-4.2,7.1-8.4,9.7-5.53,3.42-9.99,7.92-15.13,11.81-2.34,1.77-7.33,5.17-10.6,3.63-3.45-1.62-2.26-8.2-.49-10.7,2.69-3.81,7.79-5.68,12.02-7.06,6.09-1.98,12.27-3.52,18.02-6.41,10.63-5.34,19.01-17.5,15.51-29.73-1.81-6.32-7.54-11.09-14.24-8.83-5.76,1.94-11.37,9.64-12.65,15.43s.8,11.13,3.52,16.34c.1,.2,1.86,3.44,1.55,3.5l.7-1.85c-.13,.08-.25,.17-.36,.28-.6-.29-4.33,1.38-5.06,1.63-5.3,1.82-9.54,4.72-13.58,8.58-3.61,3.45-6.01,6.07-11.1,6.85-6.84,1.05-14.18,3.92-16.05,11.44-2.03,8.2,3.85,15.94,11.65,17.99,7.17,1.88,15.98-.37,22.82-2.65s13.76-5.71,19.82-10.04c6.68-4.77,4.75-16.03-4.36-16.09-5.95-.04-11.88-.29-17.81-.84-.26-.02-7.25-1.26-7.43-1.09-.32,.31,.31,.75,.62,1.55,.64,1.67-.79,1.85,.97,.96,3.73-1.9,7.56-5.69,10.5-8.67,3.62-3.67,6.73-7.89,9.3-12.35,5.56-9.64-9.35-18.35-14.91-8.71-3.23,5.6-7.35,10.06-12.54,13.89-6.09,4.49-12.05,10.52-10.08,18.83,1.67,7.04,8.02,10.67,14.72,11.82,8.74,1.5,17.79,1.82,26.64,1.88l-4.36-16.09c-4.86,3.46-10.03,6.4-15.7,8.3-2.64,.88-5.35,1.6-8.08,2.13-1.48,.28-4.5-.08-5.73,.54-1.59,3.37-1.55,4.89,.1,4.56,.59-.09,1.17-.2,1.75-.34,1.29-.21,2.61-.29,3.9-.52,2.77-.49,5.45-1.48,7.87-2.92,4.27-2.55,7.4-6.36,11.11-9.58,3.17-2.75,6.94-3.36,10.76-4.9,5.54-2.24,9.78-6.26,10.86-12.32,.94-5.29-1.22-9.9-3.61-14.48s-1.26-5.24,2.62-8.63l-3.81,2.22,.99-.36h-4.59l.91,.26-3.81-2.22c-1.1-1.07,.02-.79-.31,.8-.22,1.05-.57,1.93-1.09,2.85-1.51,2.67-3.96,4.33-6.67,5.66-5.94,2.9-12.64,3.95-18.75,6.44-14.39,5.87-24.18,18.14-20.57,34.34,3.48,15.64,21.1,18.82,33.73,12.17,6.48-3.41,11.2-9.22,17.26-13.2s12.25-7.04,15.8-13.45c4.29-7.75,3.01-16.54,2.08-24.93-1.11-9.93-2.21-19.85-3.32-29.78-.52-4.63-3.6-8.63-8.63-8.63-4.27,0-9.15,3.97-8.63,8.63h0Z"/>
      <path class="cls-3" d="M352.05,175.39c11.61-7.79,56.08,39.43,81.72,67.32,31.64,34.41,43.11,52.66,50.74,66.44,9.61,17.34,17.1,35.45,19.06,55.44,1.83,18.63-1.17,36.36-11.45,52.16-15.56,23.92-37.75,39.23-64.88,47.4-16.62,5-33.57,5.62-50.67,2.33-36.87-7.1-64.87-34.71-73.89-69.61-3.44-13.31-3.28-26.91-1.38-40.47,2.81-20.01,9.69-38.7,18.2-56.9,9.25-19.79,13.64-26.87,21.62-49.32,3.66-10.28,5.48-15.43,7.11-22.79,7.09-32.13-2.4-47.83,3.82-52Zm78.2,191.51c-16.3,16.74-34.16,16.71-39.58,33.26-3.35,10.24-.85,23.52,7.26,30.3,12.6,10.52,33.61,.88,37.66-.98,1.76-.81,9.26-4.38,16.47-12.13,8.73-9.39,11.81-19.3,13.45-24.79,6.83-22.89-.19-42.92-3.08-50.95-3.59-9.94-8.2-17.38-11.49-22.05-3.29,24.85-12.54,38.96-20.7,47.34Z"/>
      <path class="cls-2" d="M742.36,682.41c.34,1.35,7.24,30.71-14.2,51.99-14.46,14.35-36.04,19.29-55.61,12.75-42.82-46.17-85.63-92.33-128.45-138.5,10.18-3.52,25.5-10.31,40.37-23.66,16.35-14.67,25.01-30.83,29.44-41.09,42.82,46.17,85.63,92.33,128.45,138.5Z"/>
    </g>
  </g>
  <g id="Livello_1" data-name="Livello 1">
    <path class="cls-1" d="M780.59,420c7.41-1.76,14.57-3.95,20.59-9.03,7.55-6.36,12.27-14.26,14.09-23.93,.16-.83,.48-1.63,.72-2.45v35.41h-35.41Z"/>
  </g>
</svg>