<?xml version="1.0" encoding="UTF-8"?>
<svg id="Livello_3" data-name="Livello 3" xmlns="http://www.w3.org/2000/svg" viewBox="0 0 800 800">
  <defs>
    <style>
      .cls-1 {
        stroke-width: 8.3px;
      }

      .cls-1, .cls-2, .cls-3, .cls-4 {
        stroke: #000;
        stroke-miterlimit: 10;
      }

      .cls-5 {
        fill: #fff;
      }

      .cls-2 {
        stroke-width: .74px;
      }

      .cls-3 {
        fill: #fbb03b;
        stroke-width: 6.09px;
      }

      .cls-4 {
        fill: none;
        stroke-width: 20px;
      }

      .cls-6 {
        fill: #b3b3b3;
      }
    </style>
  </defs>
  <circle class="cls-4" cx="400" cy="400" r="385"/>
  <g>
    <path class="cls-6" d="M283.11,257.76c19.68-.54,39.37-.55,59.05,.03,9.84,.29,19.67,.72,29.5,1.3,4.59,.27,9.17,.57,13.75,.9,2.62,.19,5.23,.39,7.85,.6,1.31,.1,2.62,.21,3.92,.32,3.5,.29,2.61,.23-2.66-.19-3.93-2.29-7.86-4.58-11.79-6.87-4.45-9.7-6.02-12.35-4.73-7.94,.23,.93,.45,1.87,.66,2.8,.5,2.18,.98,4.37,1.43,6.57,.78,3.76,1.49,7.54,2.18,11.32,1.38,7.51,2.64,15.04,4.29,22.5,3.42,15.46,8.79,31.37,18.17,44.28,11.36,15.65,25.38,26.1,43.83,32.17,7.43,2.44,14.96,4.46,22.26,7.29,1.75,.68,6.16,3.45,.48,.11,1.53,.9,3.46,1.53,5.07,2.28,3.92,1.83,7.75,3.82,11.54,5.9,10.04,5.51,24.28,4.66,32.37-4.18,4.61-5.03,7.17-9.6,9.43-16.08l-52.47-7.1c.23,5.54,.93,11.14,2.54,16.45l18.66-32.86c-1.25,.27-2.5,.51-3.76,.72-2.99,.47-2.52,.42,1.42-.14-1.97,.86-5.48,.54-7.62,.68-4.47,.28-8.95,.37-13.42,.4-9.82,.07-19.63-.02-29.45-.04-19.14-.04-38.27-.08-57.41-.12s-38.27-.08-57.41-.12-44.69-3.59-61.57,8.6c13.4,7.69,26.79,15.38,40.19,23.06-3.33-34.28-2.28-68.13,1.03-102.34,.32-3.29-.42,2.86-.41,2.82,.75-2.6,.77-2.18-2.21,2.8-3.05,5.1-6.83,8.79-13.22,9.48-4.58,.49-1.86,.15-.88,.16,3.8,.04,7.6,.19,11.41,.32,8.72,.31,17.44,.61,26.15,.92s16.79,.53,25.19,.89c.75,.03,1.52,.12,2.27,.11,2.93-.05-3.65-.51-3.36-.47,1.04,.13,3.06,1.35-.35-.26-1.76-.83-3.17-1.5-4.72-2.73,3.16,2.5-.64-.57-1.05-1.59,.28,.69,1,1.43,1.41,2.05,1.06,1.62,2.05,3.28,2.96,4.99,1.04,1.93,1.77,4.13,2.89,5.99,.05,.09-2.08-5.28-1.09-2.52,.38,1.05,.81,2.08,1.21,3.12,1.57,4.18,3.02,8.41,4.48,12.64s2.99,8.65,4.46,12.99c.79,2.33,1.26,5.34,2.51,7.43,.46,.76,.65,3.81,.08-1.18-.39-3.43,.12-8.8,2.23-11.64l9.58-9.58c9.71-1.64,12.47-2.57,8.31-2.79-.97-.08-1.94-.15-2.91-.23-1.61-.13-3.23-.26-4.84-.38-3.55-.28-7.1-.56-10.66-.85s-7.03-.55-10.54-.84c-1.43-.12-2.85-.23-4.28-.37-.86-.08-1.71-.17-2.57-.28-2.09-.25-1.14-.13,2.84,.36-.53-.79-7.07-1.68-8.26-2.01-5.42-1.5,5.1,2.74,.2-.07-4.03-2.31,4.06,4.48,.74,.72-.68-.77-3.86-4.01-.81-.58,3.23,3.65,.3-.53-.23-.95,1.55,4.02,2.01,5.05,1.41,3.08-.57-2.08-.47-.86,.29,3.67-.03-4.81-1.63,6.63-.45,1.53l-18.66,18.66c-1.13,.18-6.08,.12-2.61,.6l-4.11-.63c.75,.13,1.48,.31,2.19,.54,2.49,.28-4.17-2.52-2.22-.95,1.48,1.19,4.1,3.69-1.17-1.06v-37.77c-9.08,8.87-17.71,18.16-25.9,27.87-4.66,5.52-7.82,11.43-7.82,18.89,0,6.55,2.91,14.38,7.82,18.89,9.92,9.11,28.15,11.4,37.77,0,8.19-9.7,16.82-18.99,25.9-27.87,9.92-9.7,10.66-28.18,0-37.77-6.01-5.41-12.37-9.41-20.18-11.73s-15.72-1.79-23.88-.51c-8.62,1.35-16.76,10.46-18.66,18.66-4.78,20.65,4.49,40.14,21.79,51.68,13.71,9.15,30.67,10.02,46.56,11.28,6.78,.54,13.56,1.08,20.34,1.62,15.56,1.24,30.43-5.93,34.84-22.08,2.41-8.83,.33-17.35-2.5-25.7-2.49-7.34-5-14.67-7.59-21.97-5.2-14.7-11.09-29.67-22.07-41.13-13.41-13.99-33.24-12.35-50.98-12.98-13.97-.49-28.04-1.56-42.02-1.46-10.34,.07-20.55,3.07-27.92,10.67-8.79,9.06-9.4,20.59-10.68,32.37-3.53,32.38-3.63,65.07-.48,97.49,.94,9.64,4.5,17.96,13.23,23.06,7.63,4.47,19.43,5.44,26.96,0,.81-.64,1.66-1.2,2.56-1.7-4.11,1.55-4.83,1.87-2.16,.94,.99-.3,1.99-.54,3-.74-4.53,.52-5.34,.63-2.43,.35,3.96-.12,7.9-.22,11.86-.21,9.24,.02,18.48,.04,27.71,.06,19.14,.04,38.27,.08,57.41,.12,19.14,.04,38.27,.08,57.41,.12,20.49,.04,40.89,.55,61.1-3.55,13.9-2.82,22.62-19.77,18.66-32.86-.41-1.2-.74-2.43-.99-3.67,.42,3.97,.54,4.44,.36,1.43-.56-13.36-9.74-24.43-23.16-26.23-13.63-1.83-24.88,6.42-29.31,19.13,.8-2.86,2.24-5.36,4.31-7.5,10.79-1.39,21.58-2.78,32.37-4.18-10.13-5.56-20.76-10.28-31.58-14.33-4.56-1.71-9.19-3.2-13.86-4.59-1.95-.58-3.91-1.15-5.84-1.77-1.11-.35-2.21-.72-3.3-1.11-4.24-1.51-.69-1.06,.75,.41-1.17-1.19-4.06-2.12-5.53-3.07-.83-.54-1.65-1.27-2.5-1.74,.48,.26,4.89,4.25,1.87,1.29-1.28-1.25-2.59-2.44-3.8-3.75-.69-.75-1.33-1.55-2.02-2.3-2.15-2.36,3.38,5.03,.91,1.13-2.08-3.27-4.14-6.48-5.85-9.98-.55-1.13-1.2-4.08-.3-.43,.97,3.93,.12,.23-.29-.85-.95-2.52-1.8-5.08-2.57-7.67-2.75-9.22-4.44-18.71-6.15-28.17s-2.77-19.54-6.02-28.55c-4.05-11.24-12.7-19.6-24.82-21.23-6.17-.83-12.36-1.27-18.57-1.72-10.47-.76-20.95-1.35-31.44-1.78-23.6-.97-47.23-1.1-70.85-.45-13.95,.38-27.37,12.01-26.71,26.71,.63,14.14,11.75,27.12,26.71,26.71h0Z"/>
    <path class="cls-6" d="M262.11,432.07c.57,2.44,1.1,4.89,1.56,7.35,.23,1.23,.45,2.47,.65,3.7,.45,2.98,.4,2.47-.15-1.52,1.46,3.96,.97,9.85,1.12,14.05,.16,4.7,.12,9.4-.14,14.09-.14,2.5-.41,4.99-.6,7.49-.35,2.99-.26,2.49,.27-1.5-.18,1.24-.37,2.48-.57,3.72l52.47,7.1c-1.19-14.41-1.58-28.85-1.17-43.31h-53.42c2.16,22.41-.03,45.43-.73,67.89-.72,22.88-1.44,45.76-2.17,68.63-.46,14.45,12.61,26.69,26.71,26.71,58.33,.08,116.65,.16,174.98,.24,6.63,0,13.26,.02,19.88,.03,8.93,.01,19.74,1.34,28.35-1.13,9.19-2.64,16.68-10.19,19.37-19.33,1.76-6,1.21-11.46,.03-17.43-.65-3.3-1.4-6.58-2.02-9.9-.74-3.95,.62,6.9,.12,.73-.2-2.45-.46-4.89-.61-7.34-1.73-27.27-1.52-55.25,.23-82.51,.46-7.12,1.21-14.19,1.98-21.28,1.62-14.85-7.98-28.14-22.5-31.72-8.28-2.05-17.88-2.14-26.41-2.5-7.11-.3-14.23-.38-21.34-.5-14.17-.24-28.23-.98-42.31-2.65-3.17-.38-6.34-.79-9.52-1.2-6.64-.85,6.13,.84-.51-.06-1.9-.26-3.8-.52-5.7-.77-8.69-1.17-17.39-2.38-26.11-3.34-13.85-1.52-27.96-2.57-41.89-1.52-12.76,.97-23.85,5.49-30.74,17.05-4.49,7.53-7.44,16.52-9.55,25.03-3.42,13.78-5.96,27.84-8.3,41.84-2.52,15.02-5.58,30.48-6.28,45.71-.63,13.73,5.66,26.2,16.88,33.98,6.52,4.52,14.18,6.38,21.85,7.73,16.97,2.99,34.14,4.41,51.34,4.79,15.53,.34,31.06,0,46.59,.15,7.6,.07,15.19,.25,22.78,.67,3.78,.21,7.56,.49,11.34,.84,1.89,.18,3.77,.41,5.65,.59,3,.37,2.51,.29-1.46-.23,1.25,.18,2.5,.36,3.75,.56,8.78,1.35,16.05,.81,23.28-4.78,7.1-5.49,9.6-12.26,10.53-20.98,2.91-27.41,4.7-56.45,1.02-83.87-1.79-13.33-11.26-23.86-24.33-27.17-6.75-1.71-13.84-2.6-20.69-3.85-13.53-2.47-27.07-4.89-40.61-7.26-14.8-2.59-30.13-6.49-45.14-7.4-10.73-.65-21.22,3.28-28.73,10.98-5.52,5.65-9.2,13.32-12.71,20.32-6.44,12.83-11.97,26.28-16.18,40.01s-1.2,28.87,12.25,37.07c5.59,3.41,12.15,3.7,18.43,4.52,3.77,.49,7.54,.87,11.33,1.12,15.21,1,30.47,.16,45.69,.76,7.79,.31,15.55,1.02,23.29,1.95,1.26,.15,2.62,.45,3.88,.49-7.67-.2,.85,.13,2.57,.38,3.87,.56,7.73,1.15,11.59,1.74,8.79,1.33,16.04,.81,23.28-4.78,6.01-4.65,11.49-12.89,10.53-20.98-1.57-13.22-6.09-24.71-16.37-33.66-8.68-7.55-17.95-11.94-28.59-16.16-19.07-7.56-39.98-11.03-60.45-11.17-13.97-.1-27.35,12.36-26.71,26.71s11.73,26.6,26.71,26.71c3.95,.03,7.89,.17,11.82,.5,1.82,.15,3.62,.37,5.43,.56,2.07,.25,1.21,.14-2.59-.34,.9,.14,1.8,.28,2.7,.44,7.48,1.29,14.86,3.15,22.04,5.59,1.72,.59,3.44,1.2,5.14,1.85,1.9,.72,6.53,3.55-.04-.09,2.5,1.39,5.13,2.47,7.56,4.01,.81,.51,1.6,1.04,2.37,1.6l-3.18-2.44c1.13,.4,2.12,2.04,3,2.86,3.49,3.26-3.56-5.63-.7-.5,.96,1.86,.49,.74-1.41-3.34,.69,2.73,.63,1.68-.17-3.13,11.27-8.59,22.54-17.17,33.81-25.76-20.3-3.08-40.67-6.22-61.24-6.63-8.89-.17-17.79,0-26.69-.12-4.43-.06-8.87-.19-13.3-.48-2.53-.16-5.04-.43-7.56-.65-3-.36-2.51-.29,1.45,.21-3.34-.68-2.56-.21,2.36,1.41l12.28,15.96-.34-1.32v14.2c1.23-6.33,3.73-12.61,6.03-18.62,.61-1.6,1.58-3.4,2-5.06-.68,2.67-1.76,4.07-.19,.55,1.35-3.04,2.77-6.04,4.27-9.02s3.05-5.91,4.68-8.81c.28-.5,2.32-3.13,2.11-3.66-.99,1.74-2.33,3.1-4.02,4.08-2.98,2.38-6.53,3.54-10.64,3.47,.98,.21,5.83,.8,1.23-.17-4.99-1.05,1.87,.4,2.88,.57,3.55,.6,7.1,1.21,10.65,1.82,14.2,2.43,28.39,4.92,42.57,7.47,6.77,1.21,13.53,2.44,20.3,3.68,3.54,.65,7.09,1.3,10.63,1.96,1.87,.35,3.9,.91,5.8,1.08l1.37,.28c-2.63-.99-5.05-2.36-7.24-4.13-2.29-3.93-4.58-7.86-6.87-11.79,1.56,3.86-.22-8.18-.08-1.78,.04,1.61,.19,3.22,.28,4.83,.19,3.54,.33,7.08,.43,10.62,.2,6.76,.24,13.53,.13,20.3-.22,13.86-1.1,27.69-2.57,41.47,11.27-8.59,22.54-17.17,33.81-25.76-30.13-4.62-60.12-4.2-90.5-4.33-14.2-.06-28.43-.43-42.56-2-1.89-.21-6.19,0,.54,.14-1.82-.04-3.81-.56-5.61-.86-2.93-.49-5.87-.99-8.77-1.67-1.23-.29-2.71-1.01-3.94-1.12l3.93,1.6c-2.31-1.44-1.55-.84,2.3,1.8-.24-.25,5.95,12.09,4.44,6.84,.5,4.74,.71,5.67,.63,2.77,.03-.98,.1-1.96,.2-2.94,.28-3.09,.74-6.16,1.13-9.24,.85-6.75-.89,6.06,.09-.68,.28-1.94,.55-3.88,.84-5.82,1.06-7.11,2.22-14.21,3.48-21.3,2.55-14.28,4.78-29.17,9.51-42.92,.36-1.05,1.09-2.38,1.27-3.43l-1.23,3.02c.48-1.04,1.01-2.05,1.58-3.04-3.74,2.94-7.48,5.87-11.22,8.81-4.81,.58-5.56,.74-2.26,.49,1.27-.03,2.54-.12,3.82-.16,7.62-.24,15.25,.01,22.85,.56,6.99,.5,13.96,1.26,20.91,2.13,3.17,.39,6.34,.77,9.5,1.23-7.55-1.11-.94-.12,.5,.07,3.63,.49,7.27,.98,10.9,1.47,15.92,2.13,31.8,3.81,47.86,4.2,8.41,.21,16.82,.23,25.23,.51,3.87,.13,7.75,.3,11.62,.57,1.93,.14,3.86,.29,5.79,.48,1.29,.12,2.57,.26,3.85,.41-4.4-.88-5.45-.94-3.14-.18-3.93-2.29-7.86-4.58-11.79-6.87l.77,.66c-2.29-3.93-4.58-7.86-6.87-11.79-.54-1.69-.06-6.25-.87-2.32-.32,1.56-.39,3.24-.57,4.83-.32,2.9-.6,5.8-.84,8.7-.46,5.49-.8,10.98-1.04,16.48-.51,11.66-.6,23.34-.54,35.01,.06,11.07,.05,22.17,.5,33.24,.21,5.22,.58,10.42,1.21,15.6,.54,4.48,1.12,9,1.92,13.45,.27,1.51,.58,3.01,.92,4.5,1.5,6.57-1.82,.25,.61-8.29l6.87-11.79-.72,.68c3.93-2.29,7.86-4.58,11.79-6.87,8.78-1.31-.31-.76-2.22-.76h-5.97c-4.64-.01-9.28-.02-13.92-.03-8.62-.01-17.23-.02-25.85-.04l-53.69-.07c-35.79-.05-71.58-.1-107.37-.15l26.71,26.71c.72-22.88,1.44-45.76,2.17-68.63,.71-22.46,2.89-45.47,.73-67.89-.7-7.24-2.51-13.58-7.82-18.89-4.63-4.63-12.23-8.12-18.89-7.82-14.81,.66-26.29,11.73-26.71,26.71-.41,14.46-.02,28.89,1.17,43.31,1.1,13.37,9.32,24.37,23.16,26.23,11.92,1.6,27.21-5.99,29.31-19.13,4.08-25.53,3.73-50.51-2.13-75.79-3.16-13.62-19.52-22.97-32.86-18.66-14.23,4.61-22.04,18.26-18.66,32.86h0Z"/>
    <circle class="cls-6" cx="523.48" cy="228.62" r="96.45"/>
    <path class="cls-5" d="M543.59,238.1c.49,4.39,1.38,8.97,1.49,13.37,.06,2.51,.15,4.24-1.85,6.01-1.01,.9-2.43,1.52-3.51,2.34s-2.07,1.81-3.16,2.64c-1.04,1.03-2.27,1.62-3.7,1.78l-.51-4.71c1.16-2.3,7.26-3.01,9.52-3.97,4.51-1.91,8.71-6,7.79-11.36-.86-5-5.52-5.52-8.55-1.97-1.46,1.71-2.34,3.74-2.08,6.01,.14,1.21,.8,2.11,1.04,3.24,.48,2.26,.9,1.13-1.21,2.26-2.42,1.29-3.92,2.74-6.09,4.36s-5.12,1.25-7.29,3.04c-3.48,2.87-2.28,8.06,1.88,9.6,5.4,2,12.81-1.74,17.12-4.7,2.66-1.82,1.78-6.18-1.69-6.22-2.45-.03-4.91-.09-7.35-.37-2.66-.3-1.75,.16,.17-.94,2.43-1.39,4.28-4.28,5.68-6.59,2.23-3.68-3.54-7.04-5.77-3.37-2.44,4.02-10.57,7.61-8.54,13.3s11.4,4.59,15.79,4.65l-1.69-6.22c-1.88,1.29-3.82,2.44-6,3.19-.91,.31-2.11,.38-2.96,.8-1.51,.75-3.39,1.95-.83,1.77,3.99-.28,5.84-3.75,8.98-5.55,2.55-1.46,5.69-1.65,6.96-4.75,.51-1.26,.52-2.6,.22-3.91-.45-1.96-3.11-4.39-.53-5.92h-3.37c1.1,.49-6.11,4.15-6.62,4.32-1.67,.55-3.36,.98-4.96,1.72-2.71,1.26-5.18,3.11-6.45,5.89-2.56,5.58,.23,12.69,6.76,13.04,2.91,.16,5.42-1.01,7.72-2.7,2.86-2.09,6.24-4.17,8.82-6.58,5.88-5.49,2.21-16.59,1.44-23.5-.47-4.22-7.15-4.27-6.68,0h0Z"/>
    <path class="cls-2" d="M250.89,591.71v-162.32c-9.65,.59-18.94-.58-24.64-8.81-3.12-4.49-5.27-10.39-5.66-15.81-.33-4.46,1.67-9.79,4.31-13.58,2.64-3.78,6.97-6.99,11.25-8.83,4.31-1.85,9.48-1.71,14.67-2.49V218.3c-2.29,0-4.66,.08-7.02-.01-13.16-.5-23.41-10.98-23.6-24.08-.18-13.02,9.87-23.78,23.11-24.49,5.41-.29,10.85-.15,16.27-.15,57.58,0,115.16-.04,172.74,.08,3.9,0,6.32-1.15,8.76-4.23,26.2-33.11,70.45-47.38,110.66-35.91,41.12,11.73,71.29,46.66,76.39,88.42,7.03,57.6-32.41,108.95-90.46,117.8-.83,.13-1.67,.26-2.79,.44v44.22c10.26-.25,20.37,1.17,25.96,10.88,2.64,4.59,4.29,10.51,4.18,15.78-.27,13.63-9.47,20.22-30.09,22.75v161.9c2.66,0,5.07-.12,7.47,.02,13.15,.76,23.05,11.44,22.91,24.63-.14,13.03-10.49,23.79-23.66,23.92-23.62,.22-47.25,.09-70.88,.09-74.73,0-149.46,.01-224.19,0-14.1,0-24.11-8.1-26-20.86-2.11-14.25,8.19-26.94,22.59-27.77,2.41-.14,4.83-.02,7.73-.02Zm270.56-.07v-161.9H264.14v161.9c2.75,0,5.18-.14,7.58,.03,3.64,.26,5.9,2.23,5.98,6,.08,4.06-2.33,6.03-6.17,6.38-1.74,.16-3.5,.06-5.25,.08-7.7,.08-15.41-.14-23.08,.34-6.2,.39-10.54,5.76-10.38,11.77,.16,6.03,4.77,10.91,10.88,11.45,1.56,.14,3.15,.07,4.72,.07,96.23,0,192.47,0,288.7,0,1.92,0,3.88,.11,5.76-.19,5.75-.89,9.92-6.04,9.79-11.86-.12-5.85-4.45-10.65-10.34-11.3-2.08-.23-4.19-.17-6.29-.17-77.69,0-155.37,0-233.06-.01-2.1,0-4.22,.08-6.28-.21-3.57-.5-5.77-2.54-5.66-6.33,.11-3.75,2.27-5.73,5.96-5.99,1.74-.12,3.5-.07,5.25-.07,70.69,0,141.37,0,212.06,0h7.14Zm-257.38-211.04c2.6,0,4.67,0,6.74,0,59.33,0,118.65,0,177.98,0,1.92,0,4.24-.55,5.67,.31,2.13,1.28,4.91,3.52,5.04,5.51,.13,2-2.24,4.8-4.26,6.12-1.65,1.08-4.39,.63-6.65,.63-66.15,.02-132.3,.02-198.46,.03-2.27,0-4.56-.06-6.82,.18-6.16,.66-10.56,5.69-10.46,11.74,.11,6.04,4.67,10.95,10.79,11.51,1.56,.14,3.15,.08,4.72,.08,96.25,0,192.51,0,288.76,0,1.57,0,3.16,.06,4.72-.07,6.15-.54,10.7-5.39,10.82-11.45,.12-6.08-4.24-11.1-10.37-11.81-1.9-.22-3.84-.18-5.77-.19-17.33-.02-34.65,.04-51.98-.05-5.2-.03-7.92-2.48-7.65-6.56,.3-4.74,3.47-6,7.63-5.99,10.5,.02,21,.02,31.5-.01,1.85,0,3.69-.19,5.62-.3v-43.42c-30.96-1.53-57.23-13.02-77.64-36.37-20.41-23.34-28.28-50.91-25.54-81.86h-154.42v161.97Zm352.25-148.88c.82-49.46-40.48-92.48-89.62-93.33-52.87-.92-95.22,39.15-96.09,90.91-.86,51.64,39.9,93.97,91.32,94.82,51.49,.85,93.52-40.29,94.39-92.4Zm-195.85-25.98c2.99-7.97,5.78-15.43,8.73-23.29-1.68-.11-3.18-.28-4.68-.28-58.95-.01-117.9-.02-176.86,0-9.44,0-14.8,4.34-14.8,11.78,0,7.42,5.42,11.74,14.8,11.79,.35,0,.7,0,1.05,0,55.45,0,110.91,0,166.36,0h5.4Z"/>
    <path class="cls-3" d="M507.28,171.78c4.49-3.01,21.69,15.25,31.61,26.04,12.24,13.31,16.67,20.37,19.63,25.7,3.72,6.71,6.61,13.71,7.37,21.44,.71,7.2-.45,14.06-4.43,20.18-6.02,9.25-14.6,15.18-25.1,18.33-6.43,1.93-12.98,2.17-19.6,.9-14.26-2.75-25.09-13.43-28.58-26.92-1.33-5.15-1.27-10.41-.53-15.65,1.09-7.74,3.75-14.97,7.04-22.01,3.58-7.65,5.27-10.39,8.36-19.08,1.41-3.98,2.12-5.97,2.75-8.82,2.74-12.43-.93-18.5,1.48-20.11Zm30.25,74.07c-6.3,6.47-13.21,6.46-15.31,12.86-1.3,3.96-.33,9.1,2.81,11.72,4.87,4.07,13,.34,14.57-.38,.68-.31,3.58-1.69,6.37-4.69,3.38-3.63,4.57-7.46,5.2-9.59,2.64-8.85-.07-16.6-1.19-19.71-1.39-3.84-3.17-6.72-4.44-8.53-1.27,9.61-4.85,15.07-8.01,18.31Z"/>
    <path class="cls-5" d="M287.87,477.29v98.1c0,5.73,8.9,5.74,8.9,0v-98.1c0-5.73-8.9-5.74-8.9,0h0Z"/>
    <path class="cls-5" d="M287.97,448.88v6.77c0,2.33,2.05,4.56,4.45,4.45s4.45-1.96,4.45-4.45v-6.77c0-2.33-2.05-4.56-4.45-4.45s-4.45,1.96-4.45,4.45h0Z"/>
    <path class="cls-1" d="M663.29,354.44c.13,.52,2.8,11.88-5.49,20.11-5.59,5.55-13.94,7.46-21.51,4.93-16.56-17.86-33.12-35.71-49.68-53.57,3.94-1.36,9.86-3.99,15.62-9.15,6.33-5.67,9.67-11.93,11.39-15.89,16.56,17.86,33.12,35.71,49.68,53.57Z"/>
    <path d="M236.95,398.44h314.4c5.73,0,5.74-8.9,0-8.9H236.95c-5.73,0-5.74,8.9,0,8.9h0Z"/>
    <g>
      <path d="M553.62,400.9c-106.28,0-212.55,0-318.83,0"/>
      <path d="M553.62,396.45c-82.7,0-165.39,0-248.09,0h-70.74c-5.73,0-5.74,8.9,0,8.9,82.7,0,165.39,0,248.09,0h70.74c5.73,0,5.74-8.9,0-8.9h0Z"/>
    </g>
    <path d="M232.75,413.18h318.48c5.73,0,5.74-8.9,0-8.9-82.61,0-165.21,0-247.82,0h-70.66c-5.73,0-5.74,8.9,0,8.9h0Z"/>
    <path d="M236.72,418.62h208.92c5.73,0,5.74-8.9,0-8.9H236.72c-5.73,0-5.74,8.9,0,8.9h0Z"/>
    <g>
      <path d="M449.5,416.21c33.12,0,66.24,0,99.36,0"/>
      <path d="M449.5,420.67c33.12,0,66.24,0,99.36,0,5.73,0,5.74-8.9,0-8.9-33.12,0-66.24,0-99.36,0-5.73,0-5.74,8.9,0,8.9h0Z"/>
    </g>
    <g>
      <path d="M450.35,385.08h33.72c-18.39,0-36.77,0-55.16,0"/>
      <path d="M450.35,389.53h33.72v-8.9c-18.39,0-36.77,0-55.16,0-5.73,0-5.74,8.9,0,8.9,18.39,0,36.77,0,55.16,0,5.73,0,5.74-8.9,0-8.9h-33.72c-5.73,0-5.74,8.9,0,8.9h0Z"/>
    </g>
    <path d="M244.66,630.1h217.31c17.19,0,17.22-26.71,0-26.71H244.66c-17.19,0-17.22,26.71,0,26.71h0Z"/>
    <g>
      <path d="M546.47,615.95c-25.75,0-51.49,0-77.24,0"/>
      <path d="M546.47,602.59c-25.75,0-51.49,0-77.24,0-17.19,0-17.22,26.71,0,26.71h77.24c17.19,0,17.22-26.71,0-26.71h0Z"/>
    </g>
    <g>
      <path d="M271.54,604.72c83.7,0,167.41,0,251.11,0"/>
      <path d="M271.54,618.07c83.7,0,167.41,0,251.11,0,17.19,0,17.22-26.71,0-26.71h-251.11c-17.19,0-17.22,26.71,0,26.71h0Z"/>
    </g>
    <path d="M242.62,206.02h173.87c17.19,0,17.22-26.71,0-26.71H242.62c-17.19,0-17.22,26.71,0,26.71h0Z"/>
    <path d="M420.58,204.32c17.19,0,17.22-26.71,0-26.71s-17.22,26.71,0,26.71h0Z"/>
    <path d="M416.83,213.16c17.19,0,17.22-26.71,0-26.71s-17.22,26.71,0,26.71h0Z"/>
  </g>
</svg>